<svg xmlns="http://www.w3.org/2000/svg" version="1.1" xmlns:xlink="http://www.w3.org/1999/xlink" xmlns:svgjs="http://svgjs.dev/svgjs" width="1000" height="1000" viewBox="0 0 1000 1000"><rect width="1000" height="1000" fill="#000000"></rect><g transform="matrix(0.7,0,0,0.7,149.57575757575756,449.92523243185155)"><svg viewBox="0 0 396 57" data-background-color="#ffffff" preserveAspectRatio="xMidYMid meet" height="143" width="1000" xmlns="http://www.w3.org/2000/svg" xmlns:xlink="http://www.w3.org/1999/xlink"><g id="tight-bounds" transform="matrix(1,0,0,1,0.2400000000000091,0.01410341043418839)"><svg viewBox="0 0 395.52 56.971792039206896" height="56.971792039206896" width="395.52"><g><svg viewBox="0 0 484.3250403423121 69.76351506311362" height="56.971792039206896" width="395.52"><g><rect width="4.5523486138488645" height="50.73251276297335" x="72.33554876027243" y="9.515501150070133" fill="#ffffff" opacity="1" stroke-width="0" stroke="transparent" fill-opacity="1" class="rect-o-0" data-fill-palette-color="primary" rx="1%" id="o-0" data-palette-color="#3d9970"></rect></g><g transform="matrix(1,0,0,1,88.80504034231204,9.64170143057504)"><svg viewBox="0 0 395.52000000000004 50.480112201963536" height="50.480112201963536" width="395.52000000000004"><g><svg viewBox="0 0 395.52000000000004 50.480112201963536" height="50.480112201963536" width="395.52000000000004"><g><svg viewBox="0 0 395.52000000000004 50.480112201963536" height="50.480112201963536" width="395.52000000000004"><g transform="matrix(1,0,0,1,0,0)"><svg width="395.52000000000004" viewBox="3 -35.900001525878906 286.19000244140625 36.400001525878906" height="50.480112201963536" data-palette-color="#3d9970"><g class="undefined-text-0" data-fill-palette-color="primary" id="text-0"><path d="M15 0L4 0 4-27.2 3-32.25 4-35.4 15-35.4 15-29.4 14.5-21.45 16-21.45 23.55-35.4 35.5-35.4 35.5-32.4 25.6-18.35 34-7.95 38.95-3 38.95 0 25.7 0 17.1-12.25 15-11.75 15-6 15.5-3 15 0ZM55.05 0L43.45 0 43.45-27.35 42.45-32.35 43.45-35.35 53.5-35.35 63.6-22.75 66-18.6 66.5-18.6 66.5-35.35 78.05-35.35 78.05-32.35 77.55-27.35 77.55 0 67.6 0 55.05-17.1 54.55-17.1 54.55-14.1 55.05 0ZM100.75 0.5L100.75 0.5Q97.55 0.5 94.37-0.28 91.2-1.05 88.57-3.05 85.95-5.05 84.35-8.6 82.75-12.15 82.75-17.7L82.75-17.7Q82.75-23.25 84.35-26.8 85.95-30.35 88.57-32.35 91.2-34.35 94.37-35.13 97.55-35.9 100.75-35.9L100.75-35.9Q103.95-35.9 107.12-35.1 110.3-34.3 112.92-32.3 115.55-30.3 117.15-26.75 118.75-23.2 118.75-17.7L118.75-17.7Q118.75-12.2 117.15-8.65 115.55-5.1 112.92-3.1 110.3-1.1 107.12-0.3 103.95 0.5 100.75 0.5ZM100.75-9.5L100.75-9.5Q104-9.5 105.65-11.48 107.3-13.45 107.3-17.7L107.3-17.7Q107.3-21.9 105.65-23.9 104-25.9 100.75-25.9L100.75-25.9Q94.25-25.9 94.25-17.7L94.25-17.7Q94.25-13.5 95.87-11.5 97.5-9.5 100.75-9.5ZM145.94 0L130.94 0 122.94-27.45 121.44-32.4 121.44-35.4 133.04-35.4 138.24-11.1 139.24-11.1 142.99-35.4 158.14-35.4 161.04-16.95 161.84-11.1 162.84-11.1 168.04-35.4 179.44-35.4 179.44-32.4 177.94-27.45 169.99 0 155.09 0 150.94-24.6 149.89-24.6 149.04-19.05 145.94 0ZM196.04 0L184.44 0 184.44-27.35 183.44-32.35 184.44-35.35 194.49-35.35 204.59-22.75 206.99-18.6 207.49-18.6 207.49-35.35 219.04-35.35 219.04-32.35 218.54-27.35 218.54 0 208.59 0 196.04-17.1 195.54-17.1 195.54-14.1 196.04 0ZM253.99 0L226.04 0 225.04-3 226.04-8 226.04-35.4 251.79-35.4 254.29-33.9 250.99-25.4 246.49-25.9 237.14-25.9 237.14-21.9 249.49-21.9 249.49-13.65 242.59-13.65 237.14-14.15 237.14-9.5 250.99-9.5 256.94-3.2 253.99 0ZM278.94 0L267.94 0 267.94-25.85 257.94-25.35 257.94-35.4 289.19-35.4 289.19-25.35 278.94-25.85 278.94-8 279.49-3 278.94 0Z" fill="#ffffff" data-fill-palette-color="primary"></path></g></svg></g></svg></g></svg></g></svg></g><g><svg viewBox="0 0 60.41840579208169 69.76351506311362" height="69.76351506311362" width="60.41840579208169"><g><svg xmlns="http://www.w3.org/2000/svg" xmlns:xlink="http://www.w3.org/1999/xlink" version="1.1" x="0" y="0" viewBox="9.54699993133545 3.2899999618530273 80.906005859375 93.41999816894531" enable-background="new 0 0 100 100" xml:space="preserve" height="69.76351506311362" width="60.41840579208169" class="icon-icon-0" data-fill-palette-color="accent" id="icon-0"><g fill="#528265" data-fill-palette-color="accent"><path d="M31.112 39.094v21.812L49.999 71.81l18.89-10.903V39.094l-18.89-10.905L31.112 39.094zM60.925 56.308l-10.926 6.307-10.924-6.307V43.692l10.924-6.308 10.926 6.308V56.308z" fill="#ffffff" data-fill-palette-color="accent"></path><path d="M49.999 3.29L9.547 26.646v46.709L49.999 96.71l40.454-23.355V26.646L49.999 3.29zM82.19 68.584L49.999 87.169 17.811 68.584v-37.17l32.188-18.585L82.19 31.414V68.584z" fill="#ffffff" data-fill-palette-color="accent"></path><path d="M20.368 32.89v34.218l29.631 17.108 29.634-17.108V32.89L49.999 15.782 20.368 32.89zM71.446 62.383l-21.447 12.38-21.444-12.38V37.618l21.444-12.382 21.447 12.382V62.383z" fill="#ffffff" data-fill-palette-color="accent"></path></g></svg></g></svg></g></svg></g><defs></defs></svg><rect width="395.52" height="56.971792039206896" fill="none" stroke="none" visibility="hidden"></rect></g></svg></g></svg>